<svg xmlns="http://www.w3.org/2000/svg" xmlns:xlink="http://www.w3.org/1999/xlink" width="416" height="388" version="1.1" viewBox="0 0 416 388"><title>bootswatch</title><desc>Created with Sketch.</desc><g id="Page-1" fill="none" fill-rule="evenodd" stroke="none" stroke-width="1"><g id="bootswatch" transform="translate(-2.000000, 0.000000)"><rect id="Path-2" width="86.154" height="258.462" x="103.517" y="191.553" fill="#E74C3C" rx="8" transform="translate(146.593847, 320.783896) rotate(-80.000000) translate(-146.593847, -320.783896)"/><rect id="Path-15" width="86.154" height="258.462" x="90.379" y="139.221" fill="#F39C12" rx="8" transform="translate(133.455591, 268.451625) rotate(-60.000000) translate(-133.455591, -268.451625)"/><rect id="Path-3" width="86.154" height="258.462" x="96.682" y="85.65" fill="#18BC9C" rx="8" transform="translate(139.759082, 214.880369) rotate(-40.000000) translate(-139.759082, -214.880369)"/><rect id="Path-3" width="86.154" height="258.462" x="120.217" y="36.872" fill="#2C3E50" rx="8" transform="translate(163.293978, 166.103077) rotate(-20.000000) translate(-163.293978, -166.103077)"/><path id="Path-3" fill="#FFF" d="M159.541173,252.121146 C159.43848,251.609288 159.384615,251.079767 159.384615,250.537653 L159.384615,8.07773184 C159.384615,3.65672746 162.970137,0.0769230769 167.393101,0.0769230769 L237.529976,0.0769230769 C241.959831,0.0769230769 245.538462,3.65900717 245.538462,8.07773184 L245.538462,136.661164 C259.012015,131.898951 273.511089,129.307692 288.615385,129.307692 C359.987568,129.307692 417.846154,187.166278 417.846154,258.538462 C417.846154,329.910645 359.987568,387.769231 288.615385,387.769231 C217.243202,387.769231 159.384615,329.910645 159.384615,258.538462 C159.384615,256.386668 159.437206,254.247158 159.541173,252.121146 Z M288.615385,301.615385 C312.406112,301.615385 331.692308,282.329189 331.692308,258.538462 C331.692308,234.747734 312.406112,215.461538 288.615385,215.461538 C264.824657,215.461538 245.538462,234.747734 245.538462,258.538462 C245.538462,282.329189 264.824657,301.615385 288.615385,301.615385 Z"/></g></g></svg>